<svg width="25" height="19" viewBox="0 0 25 19" fill="none" xmlns="http://www.w3.org/2000/svg">
<path d="M20.0439 16.8571H5.41895C4.4852 16.8571 3.73145 16.0914 3.73145 15.1429V4.85714C3.73145 3.90857 4.4852 3.14285 5.41895 3.14285H20.0439C20.9777 3.14285 21.7314 3.90857 21.7314 4.85714V15.1429C21.7314 16.0914 20.9777 16.8571 20.0439 16.8571ZM5.41895 4.28571C5.10395 4.28571 4.85645 4.53714 4.85645 4.85714V15.1429C4.85645 15.4629 5.10395 15.7143 5.41895 15.7143H20.0439C20.3589 15.7143 20.6064 15.4629 20.6064 15.1429V4.85714C20.6064 4.53714 20.3589 4.28571 20.0439 4.28571H5.41895Z" fill="white"/>
<path d="M12.7313 12.2399C11.9438 12.2399 11.2238 11.9199 10.6838 11.337L4.77755 4.95985C4.5638 4.73128 4.57505 4.36557 4.80005 4.14842C5.02505 3.93128 5.38505 3.94271 5.5988 4.17128L11.505 10.5484C12.1463 11.2456 13.3163 11.2456 13.9575 10.5484L19.8638 4.18271C20.0775 3.95414 20.4375 3.94271 20.6625 4.15985C20.8875 4.377 20.8988 4.74271 20.685 4.97128L14.7788 11.3484C14.2388 11.9313 13.5188 12.2513 12.7313 12.2513V12.2399Z" fill="white"/>
</svg>
