<svg width="24" height="20" viewBox="0 0 24 20" fill="none" xmlns="http://www.w3.org/2000/svg">
<path d="M22.3253 8.65014C22.867 9.35871 22.867 10.3153 22.3253 11.0227C20.619 13.2501 16.5253 17.8364 11.7458 17.8364C6.9664 17.8364 2.87268 13.2501 1.1664 11.0227C0.902837 10.6834 0.759766 10.266 0.759766 9.83643C0.759766 9.40681 0.902837 8.98942 1.1664 8.65014C2.87268 6.42271 6.9664 1.83643 11.7458 1.83643C16.5253 1.83643 20.619 6.42271 22.3253 8.65014V8.65014Z" stroke="#676D75" stroke-width="1.5" stroke-linecap="round" stroke-linejoin="round"/>
<path d="M11.746 13.2649C13.6395 13.2649 15.1745 11.7299 15.1745 9.83635C15.1745 7.9428 13.6395 6.40778 11.746 6.40778C9.85241 6.40778 8.31738 7.9428 8.31738 9.83635C8.31738 11.7299 9.85241 13.2649 11.746 13.2649Z" stroke="#676D75" stroke-width="1.5" stroke-linecap="round" stroke-linejoin="round"/>
<path d="M2.7832 18.4811L20.9046 1.19189" stroke="#676D75" stroke-width="1.5" stroke-linecap="round" stroke-linejoin="round"/>
</svg>
