<svg width="25" height="18" viewBox="0 0 25 18" fill="none" xmlns="http://www.w3.org/2000/svg">
<path d="M23.2969 7.82397C23.8386 8.53254 23.8386 9.48911 23.2969 10.1965C21.5906 12.424 17.4969 17.0103 12.7175 17.0103C7.93808 17.0103 3.84436 12.424 2.13808 10.1965C1.87452 9.85726 1.73145 9.43988 1.73145 9.01025C1.73145 8.58063 1.87452 8.16325 2.13808 7.82397C3.84436 5.59654 7.93808 1.01025 12.7175 1.01025C17.4969 1.01025 21.5906 5.59654 23.2969 7.82397V7.82397Z" stroke="#C9C9C9" stroke-width="1.5" stroke-linecap="round" stroke-linejoin="round"/>
<path d="M12.7176 12.4387C14.6112 12.4387 16.1462 10.9037 16.1462 9.01011C16.1462 7.11657 14.6112 5.58154 12.7176 5.58154C10.8241 5.58154 9.28906 7.11657 9.28906 9.01011C9.28906 10.9037 10.8241 12.4387 12.7176 12.4387Z" stroke="#C9C9C9" stroke-width="1.5" stroke-linecap="round" stroke-linejoin="round"/>
</svg>
