<svg width="25" height="25" viewBox="0 0 25 25" fill="none" xmlns="http://www.w3.org/2000/svg">
<path d="M3.73145 19.6082V5.40517C3.74546 5.38042 3.75654 5.35412 3.76447 5.3268C3.9516 4.2727 4.84234 3.50921 5.90524 3.50833C10.4569 3.50569 15.0085 3.50569 19.5601 3.50833C20.1349 3.50984 20.6857 3.73882 21.0922 4.14524C21.4987 4.55166 21.7278 5.10246 21.7295 5.67728C21.7324 10.2292 21.7324 14.7809 21.7295 19.3325C21.7295 20.1299 21.368 20.7574 20.6899 21.1708C20.4328 21.3276 20.1215 21.3967 19.8348 21.5059H15.3322C15.0363 21.3694 14.939 21.14 14.9408 20.8159C14.9511 18.7612 14.9511 16.7052 14.9408 14.6481C14.9377 14.2078 15.2072 13.9736 15.6118 13.9877C16.027 14.0026 16.4436 13.9907 16.8592 13.9907H17.3801V12.4937H17.1445C16.6118 12.4937 16.0786 12.4977 15.5458 12.4937C15.1535 12.4897 14.947 12.2788 14.9465 11.8953C14.9465 11.2161 14.9465 10.5367 14.9465 9.85713C14.9465 9.4472 15.19 9.20635 15.6039 9.20547C16.1323 9.20547 16.6584 9.20547 17.1855 9.20547H17.3687V7.70226C17.3433 7.69737 17.3178 7.69398 17.292 7.69213C16.706 7.69213 16.1199 7.67936 15.5348 7.69477C14.3252 7.72692 13.438 8.64496 13.4332 9.85492C13.4332 10.5154 13.4332 11.1789 13.4332 11.8407C13.4332 12.2973 13.2412 12.4902 12.7811 12.4915C12.2527 12.4915 11.7266 12.4915 11.1995 12.4915C11.1374 12.4915 11.0758 12.4968 11.0141 12.4994V13.9916C11.5967 13.9916 12.1651 14.0048 12.7313 13.9877C13.1496 13.9744 13.4424 14.1682 13.4385 14.6833C13.4235 16.7272 13.4279 18.7716 13.4385 20.8159C13.4385 21.1387 13.3438 21.3703 13.0475 21.5063H5.63005C5.60521 21.4925 5.57893 21.4814 5.55168 21.4733C4.85731 21.3483 4.33423 20.974 4.00135 20.358C3.87675 20.1269 3.81951 19.8592 3.73145 19.6082ZM16.016 15.0686C16.0125 15.1333 16.009 15.1734 16.009 15.2135C16.009 16.9012 16.009 18.5884 16.005 20.277C16.005 20.4298 16.0662 20.4461 16.1913 20.4456C17.2696 20.4421 18.3488 20.4456 19.4258 20.4417C19.5601 20.4441 19.6941 20.4293 19.8247 20.3977C20.3672 20.2519 20.6652 19.8209 20.6652 19.1917C20.6652 14.7387 20.6652 10.2855 20.6652 5.83227C20.6683 5.69212 20.6535 5.55215 20.6212 5.41574C20.4785 4.87857 20.0488 4.57431 19.4324 4.57387C14.9677 4.57387 10.5029 4.57387 6.03822 4.57387C5.90376 4.57145 5.76956 4.58625 5.63886 4.6179C5.09684 4.76144 4.79523 5.19471 4.79523 5.82126C4.79523 10.2798 4.79523 14.7387 4.79523 19.1978C4.79281 19.3323 4.8076 19.4665 4.83926 19.5972C4.985 20.1383 5.41782 20.4417 6.04174 20.4421C8.08653 20.4421 10.1315 20.4421 12.1765 20.4421C12.2333 20.4421 12.2906 20.4364 12.358 20.4329V15.0686H12.162C11.6169 15.0686 11.0723 15.0686 10.5272 15.0686C10.1458 15.0686 9.92481 14.8485 9.92393 14.4694C9.92188 13.6548 9.92188 12.8404 9.92393 12.0261C9.92393 11.6342 10.1441 11.4211 10.5368 11.4202C11.0815 11.4202 11.6266 11.4202 12.1713 11.4202C12.2333 11.4202 12.2954 11.4149 12.3707 11.4114C12.3707 10.9095 12.3615 10.4238 12.3747 9.93858C12.3751 9.65241 12.4031 9.36694 12.4583 9.08615C12.7732 7.67716 14.0377 6.65785 15.4441 6.63803C16.2406 6.62659 17.0375 6.63099 17.8345 6.63143C18.2546 6.63143 18.4575 6.83749 18.458 7.25799C18.458 8.04291 18.458 8.82798 18.458 9.61319C18.458 10.0707 18.2634 10.2693 17.8098 10.2706C17.2766 10.2706 16.7434 10.2706 16.2102 10.2706C16.1481 10.2706 16.0856 10.2767 16.02 10.2803V11.4193H17.798C18.2594 11.4193 18.4584 11.6188 18.4584 12.0855V14.3883C18.4584 14.8727 18.2638 15.0682 17.7759 15.0682L16.016 15.0686Z" fill="white"/>
</svg>
