<svg width="25" height="24" viewBox="0 0 25 24" fill="none" xmlns="http://www.w3.org/2000/svg">
<path d="M15.5359 12.566C14.7155 11.789 13.6284 11.356 12.4985 11.356C11.3685 11.356 10.2814 11.789 9.46095 12.566L5.7972 16.031C3.6972 17.9397 5.2122 21.5885 8.0472 21.446C9.5847 21.4047 10.8335 20.6172 12.4947 20.6472C14.216 20.6172 15.4947 21.311 17.0397 21.446C19.826 21.5097 21.266 17.9022 19.196 16.031L15.5359 12.566ZM19.2485 19.1922C19.0699 19.6486 18.7537 20.0382 18.3439 20.307C17.934 20.5757 17.4507 20.7104 16.961 20.6922C15.5172 20.4822 14.246 19.8747 12.4985 19.8972C10.751 19.9197 9.49845 20.6472 7.95345 20.696C7.47366 20.6994 7.00402 20.5579 6.60607 20.2899C6.20811 20.0218 5.9004 19.6399 5.72325 19.194C5.54611 18.7481 5.5078 18.2591 5.61334 17.791C5.71887 17.323 5.96334 16.8977 6.3147 16.571L9.9747 13.1247C10.6569 12.4802 11.5599 12.1211 12.4985 12.1211C13.437 12.1211 14.34 12.4802 15.0222 13.1247L18.6822 16.5897C19.0282 16.9157 19.2675 17.3387 19.3686 17.8032C19.4696 18.2678 19.4278 18.752 19.2485 19.1922Z" fill="#C8C7D2" stroke="#C8C7D2" stroke-width="0.7"/>
<path d="M21.8446 7.4735C20.4121 7.19225 19.3171 8.786 19.0321 10.1585C18.1771 14.4073 22.2946 15.2173 23.2583 11.096C23.6521 9.32975 23.0296 7.736 21.8446 7.4735ZM22.5271 10.9348C21.7246 14.1223 19.1521 13.5598 19.7633 10.3235C20.4158 7.42475 23.1158 7.38725 22.5271 10.9348Z" fill="#C8C7D2" stroke="#C8C7D2" stroke-width="0.7"/>
<path d="M15.7734 9.76852C17.1984 9.76852 18.3571 8.14852 18.3571 6.16102C18.2146 1.37602 13.3321 1.37602 13.1934 6.16102C13.1934 8.14852 14.3521 9.76852 15.7734 9.76852ZM15.7734 3.30352C18.1921 3.46852 18.1921 8.85352 15.7734 9.01852C13.3546 8.85352 13.3584 3.46852 15.7734 3.30352Z" fill="#C8C7D2" stroke="#C8C7D2" stroke-width="0.7"/>
<path d="M5.96671 10.1585C5.68546 8.786 4.58671 7.19225 3.15421 7.4735C0.499206 8.14475 1.62421 13.8035 4.21921 13.8185C5.68921 13.7698 6.36796 12.0635 5.96671 10.1585ZM4.39171 13.0498C2.54296 13.3273 1.52296 8.7335 3.31546 8.2085C4.39546 8.1035 5.00296 9.37475 5.23546 10.3235C5.52796 11.6248 5.14171 12.8848 4.39171 13.0498Z" fill="#C8C7D2" stroke="#C8C7D2" stroke-width="0.7"/>
<path d="M9.22633 9.76852C10.6476 9.76852 11.8063 8.14852 11.8063 6.16102C11.6676 1.37602 6.78508 1.37602 6.64258 6.16102C6.64258 8.14852 7.80133 9.76852 9.22633 9.76852ZM9.22633 3.30352C11.6451 3.46852 11.6413 8.85352 9.22633 9.01852C6.80758 8.85352 6.80758 3.46852 9.22633 3.30352Z" fill="#C8C7D2" stroke="#C8C7D2" stroke-width="0.7"/>
</svg>
