<svg width="25" height="19" viewBox="0 0 25 19" fill="none" xmlns="http://www.w3.org/2000/svg">
<path d="M21.7314 4.19804V14.8153C21.7187 14.834 21.7085 14.8543 21.7011 14.8757C21.5018 15.8372 20.7469 16.4637 19.7731 16.4641C15.0748 16.4656 10.3765 16.4656 5.67828 16.4641C4.57564 16.4641 3.73337 15.6179 3.7326 14.5157C3.73106 11.1763 3.73106 7.83712 3.7326 4.49803C3.72967 4.39862 3.73546 4.29914 3.74991 4.20074C3.93182 3.18539 4.69487 2.54927 5.73059 2.54888C8.87661 2.54888 12.0225 2.54888 15.1683 2.54888C16.7147 2.54888 18.2616 2.54581 19.8081 2.54888C20.2182 2.54841 20.6178 2.67908 20.9484 2.9218C21.279 3.16453 21.5233 3.5066 21.6457 3.89806C21.6772 3.99767 21.703 4.09843 21.7314 4.19804ZM18.0351 7.95288L12.7322 12.6704L7.42975 7.95327V15.6245H18.0351V7.95288ZM12.7361 8.98707C12.7041 8.96246 12.6849 8.94861 12.6676 8.934C10.7277 7.2292 8.78802 5.52414 6.84862 3.81883C6.32056 3.35385 6.32287 3.35116 5.60213 3.38346C5.38144 3.39242 5.16858 3.46781 4.99146 3.59978C4.81434 3.73175 4.6812 3.91413 4.60948 4.12305C4.56795 4.2415 4.57987 4.31919 4.68217 4.40996C7.09515 6.55269 9.50607 8.69772 11.9149 10.8451C12.1842 11.0851 12.4561 11.3239 12.7326 11.5685C12.8199 11.4916 12.8945 11.4277 12.9684 11.362L14.4791 10.0155C16.5836 8.14249 18.6885 6.27078 20.7938 4.40034C20.8742 4.32881 20.8996 4.26843 20.8653 4.15997C20.7238 3.71037 20.338 3.40231 19.8654 3.38385C19.6781 3.37654 19.49 3.38808 19.3031 3.37731C19.2425 3.37362 19.1817 3.38282 19.1249 3.4043C19.0681 3.42578 19.0165 3.45905 18.9735 3.50192C17.7746 4.56008 16.5744 5.61632 15.3729 6.67063L12.7361 8.98707ZM7.60513 3.38885L12.7326 7.89173L17.8539 3.38885H7.60513ZM6.58094 15.6214C6.58363 15.5629 6.58709 15.5222 6.58709 15.4818C6.58709 12.7701 6.58555 10.0583 6.58248 7.34637C6.57514 7.25188 6.53275 7.16354 6.46364 7.09869C5.88251 6.5714 5.29407 6.05258 4.70717 5.53145C4.66563 5.49299 4.62141 5.46107 4.55064 5.40338V5.58914C4.55064 8.53517 4.55064 11.4812 4.55064 14.4272C4.55121 14.515 4.55699 14.6028 4.56795 14.6899C4.62333 15.1514 4.99101 15.5656 5.44752 15.6129C5.81712 15.6522 6.19326 15.6214 6.58094 15.6214ZM20.9123 5.40607C20.8465 5.45876 20.8061 5.48837 20.7688 5.52145C20.1819 6.0422 19.5969 6.56525 19.0069 7.08254C18.9621 7.11819 18.9266 7.16408 18.9032 7.21635C18.8798 7.26863 18.8694 7.32575 18.8727 7.38291C18.8766 10.0651 18.8775 12.7473 18.8754 15.4295V15.6218C19.27 15.6218 19.6473 15.6572 20.015 15.6133C20.5638 15.5476 20.9115 15.0591 20.9119 14.4272C20.9119 11.4812 20.9119 8.53542 20.9119 5.58991L20.9123 5.40607Z" fill="white"/>
</svg>
