<svg width="22" height="25" viewBox="0 0 22 25" fill="none" xmlns="http://www.w3.org/2000/svg">
<path d="M11.3256 22.5055C9.16392 22.5055 7.00192 22.5055 4.83955 22.5055C3.70891 22.5055 2.80274 21.7621 2.58606 20.6537C2.55602 20.4763 2.54318 20.2964 2.54772 20.1165C2.54772 16.8385 2.55106 13.5604 2.54272 10.2824C2.54272 9.50017 2.82886 8.8779 3.43168 8.38231C5.58627 6.60737 7.73901 4.82947 9.8899 3.04861C10.7666 2.32634 11.89 2.32634 12.7668 3.04416C14.9169 4.80317 17.0652 6.56496 19.2117 8.32953C19.8228 8.83234 20.1223 9.4635 20.1201 10.2636C20.1097 13.5412 20.1097 16.8192 20.1201 20.0976C20.1262 21.361 19.335 22.1599 18.5472 22.3911C18.3023 22.4633 18.0485 22.5007 17.7932 22.5022C15.6359 22.5088 13.4807 22.5055 11.3256 22.5055ZM11.3083 21.1765H17.7316C18.4022 21.1765 18.7766 20.8037 18.7766 20.1376C18.7766 16.8533 18.7777 13.569 18.78 10.2847C18.7866 10.1152 18.7528 9.94666 18.6814 9.79287C18.61 9.63907 18.5031 9.50446 18.3694 9.40016C16.2418 7.64634 14.1161 5.89066 11.9923 4.13313C11.5739 3.7881 11.0822 3.79088 10.6661 4.13313C8.5411 5.88881 6.4154 7.64411 4.28896 9.39905C4.15527 9.50335 4.04832 9.63796 3.97693 9.79176C3.90553 9.94555 3.87175 10.1141 3.87837 10.2836C3.88448 13.5543 3.89115 16.8246 3.87393 20.0953C3.87004 20.7376 4.28896 21.1882 4.96845 21.1826C7.08304 21.1643 9.19429 21.1765 11.3083 21.1765Z" fill="url(#paint0_linear_1_1656)"/>
<path d="M11.3085 19.5865C10.0121 19.5865 8.71575 19.5865 7.41936 19.5865C6.96155 19.5865 6.65875 19.2976 6.67153 18.882C6.67785 18.7358 6.73259 18.5959 6.82713 18.4843C6.92168 18.3726 7.05066 18.2956 7.19379 18.2653C7.28913 18.2483 7.38587 18.2405 7.4827 18.242C10.0466 18.242 12.6106 18.242 15.1749 18.242C15.4194 18.242 15.646 18.2764 15.8161 18.472C15.9966 18.6792 16.0416 18.9164 15.9361 19.1681C15.8172 19.4515 15.5838 19.5865 15.2794 19.5865C14.6349 19.5904 13.9904 19.5865 13.3459 19.5865H11.3085Z" fill="url(#paint1_linear_1_1656)"/>
<defs>
<linearGradient id="paint0_linear_1_1656" x1="3.50977" y1="39.5216" x2="22.2773" y2="38.6616" gradientUnits="userSpaceOnUse">
<stop stop-color="#C8102E"/>
<stop offset="1" stop-color="#F0304F"/>
</linearGradient>
<linearGradient id="paint1_linear_1_1656" x1="7.18395" y1="20.7337" x2="16.0075" y2="17.5489" gradientUnits="userSpaceOnUse">
<stop stop-color="#C8102E"/>
<stop offset="1" stop-color="#F0304F"/>
</linearGradient>
</defs>
</svg>
