<svg width="19" height="20" viewBox="0 0 19 20" fill="none" xmlns="http://www.w3.org/2000/svg">
<path d="M9.49985 13C6.32977 13 3.51065 14.5306 1.71585 16.906C1.32956 17.4172 1.13641 17.6728 1.14273 18.0183C1.14761 18.2852 1.31521 18.6219 1.52522 18.7867C1.79704 19 2.17372 19 2.92708 19H16.0726C16.826 19 17.2027 19 17.4745 18.7867C17.6845 18.6219 17.8521 18.2852 17.857 18.0183C17.8633 17.6728 17.6701 17.4172 17.2839 16.906C15.4891 14.5306 12.6699 13 9.49985 13Z" stroke="#C8C7D2" stroke-width="1.7" stroke-linecap="round" stroke-linejoin="round"/>
<path d="M9.49985 10C11.9851 10 13.9999 7.98528 13.9999 5.5C13.9999 3.01472 11.9851 1 9.49985 1C7.01457 1 4.99985 3.01472 4.99985 5.5C4.99985 7.98528 7.01457 10 9.49985 10Z" stroke="#C8C7D2" stroke-width="1.7" stroke-linecap="round" stroke-linejoin="round"/>
</svg>
